G04 #@! TF.GenerationSoftware,KiCad,Pcbnew,8.0.9*
G04 #@! TF.CreationDate,2025-03-02T14:07:43+01:00*
G04 #@! TF.ProjectId,cjss103,636a7373-3130-4332-9e6b-696361645f70,rev?*
G04 #@! TF.SameCoordinates,Original*
G04 #@! TF.FileFunction,Soldermask,Bot*
G04 #@! TF.FilePolarity,Negative*
%FSLAX46Y46*%
G04 Gerber Fmt 4.6, Leading zero omitted, Abs format (unit mm)*
G04 Created by KiCad (PCBNEW 8.0.9) date 2025-03-02 14:07:43*
%MOMM*%
%LPD*%
G01*
G04 APERTURE LIST*
%ADD10R,1.600000X1.600000*%
%ADD11O,1.600000X1.600000*%
%ADD12C,1.600000*%
%ADD13R,1.050000X1.500000*%
%ADD14O,1.050000X1.500000*%
%ADD15R,1.700000X1.700000*%
%ADD16O,1.700000X1.700000*%
%ADD17C,5.600000*%
%ADD18C,2.200000*%
%ADD19C,2.000000*%
%ADD20O,1.900000X3.200000*%
%ADD21R,1.200000X1.200000*%
%ADD22C,1.200000*%
%ADD23C,3.200000*%
G04 APERTURE END LIST*
D10*
X109220000Y-69850000D03*
D11*
X101600000Y-69850000D03*
D12*
X107950000Y-58420000D03*
X97950000Y-58420000D03*
X161250000Y-77470000D03*
X156250000Y-77470000D03*
X173990000Y-77470000D03*
D11*
X163830000Y-77470000D03*
D12*
X153670000Y-77470000D03*
D11*
X143510000Y-77470000D03*
D10*
X165100000Y-69850000D03*
D11*
X172720000Y-69850000D03*
D12*
X143510000Y-66040000D03*
D11*
X153670000Y-66040000D03*
D13*
X160020000Y-67310000D03*
D14*
X158750000Y-67310000D03*
X157480000Y-67310000D03*
D15*
X161290000Y-40640000D03*
D16*
X163830000Y-40640000D03*
D12*
X166450000Y-58420000D03*
X176450000Y-58420000D03*
X173990000Y-66040000D03*
D11*
X163830000Y-66040000D03*
D12*
X102870000Y-73660000D03*
X107870000Y-73660000D03*
X163830000Y-58420000D03*
D11*
X153670000Y-58420000D03*
D10*
X139660000Y-59690000D03*
D12*
X137160000Y-59690000D03*
X173990000Y-62230000D03*
D11*
X163830000Y-62230000D03*
D17*
X99060000Y-35560000D03*
D12*
X100330000Y-77470000D03*
D11*
X110490000Y-77470000D03*
D12*
X110490000Y-53340000D03*
D11*
X100330000Y-53340000D03*
D13*
X157480000Y-54610000D03*
D14*
X158750000Y-54610000D03*
X160020000Y-54610000D03*
D15*
X157480000Y-40640000D03*
D16*
X154940000Y-40640000D03*
D12*
X100330000Y-66040000D03*
D11*
X110490000Y-66040000D03*
D12*
X113030000Y-44450000D03*
X118030000Y-44450000D03*
X153670000Y-53340000D03*
D11*
X143510000Y-53340000D03*
D18*
X132240000Y-25400000D03*
X142240000Y-25400000D03*
D19*
X129740000Y-35100000D03*
X137240000Y-35100000D03*
X144740000Y-35100000D03*
X132240000Y-37600000D03*
X142240000Y-37600000D03*
D12*
X153670000Y-62230000D03*
D11*
X143510000Y-62230000D03*
D12*
X146130000Y-73660000D03*
X151130000Y-73660000D03*
X120650000Y-69850000D03*
D11*
X130810000Y-69850000D03*
D12*
X153670000Y-48260000D03*
D11*
X143510000Y-48260000D03*
D12*
X173990000Y-44450000D03*
D11*
X163830000Y-44450000D03*
D12*
X171370000Y-73660000D03*
X166370000Y-73660000D03*
X100330000Y-62230000D03*
D11*
X110490000Y-62230000D03*
D12*
X120650000Y-44450000D03*
D11*
X130810000Y-44450000D03*
D12*
X139660000Y-50800000D03*
X134660000Y-50800000D03*
D10*
X119380000Y-73660000D03*
D11*
X111760000Y-73660000D03*
D15*
X96520000Y-54610000D03*
D16*
X96520000Y-52070000D03*
D12*
X173990000Y-49530000D03*
D11*
X163830000Y-49530000D03*
D13*
X116840000Y-48260000D03*
D14*
X115570000Y-48260000D03*
X114300000Y-48260000D03*
D12*
X120650000Y-48260000D03*
D11*
X130810000Y-48260000D03*
D12*
X120650000Y-53340000D03*
D11*
X130810000Y-53340000D03*
D13*
X160020000Y-62230000D03*
D14*
X158750000Y-62230000D03*
X157480000Y-62230000D03*
D13*
X114300000Y-63500000D03*
D14*
X115570000Y-63500000D03*
X116840000Y-63500000D03*
D10*
X134620000Y-45720000D03*
D12*
X137120000Y-45720000D03*
X120650000Y-77470000D03*
D11*
X130810000Y-77470000D03*
D15*
X116840000Y-40640000D03*
D16*
X119380000Y-40640000D03*
D12*
X133350000Y-63500000D03*
D11*
X133350000Y-73660000D03*
D12*
X113070000Y-77470000D03*
X118070000Y-77470000D03*
X130810000Y-66040000D03*
D11*
X120650000Y-66040000D03*
D10*
X154940000Y-73660000D03*
D11*
X162560000Y-73660000D03*
D12*
X100330000Y-44450000D03*
D11*
X110490000Y-44450000D03*
D12*
X163830000Y-54610000D03*
D11*
X173990000Y-54610000D03*
D12*
X134660000Y-54610000D03*
X139660000Y-54610000D03*
D20*
X119120000Y-31440000D03*
X106820000Y-31440000D03*
D19*
X109220000Y-35190000D03*
X116720000Y-35190000D03*
D18*
X109220000Y-27940000D03*
D13*
X116840000Y-53340000D03*
D14*
X115570000Y-53340000D03*
X114300000Y-53340000D03*
D12*
X100330000Y-48260000D03*
D11*
X110490000Y-48260000D03*
D12*
X161210000Y-44450000D03*
X156210000Y-44450000D03*
D21*
X149860000Y-57785000D03*
D22*
X148360000Y-57785000D03*
D15*
X113030000Y-40640000D03*
D16*
X110490000Y-40640000D03*
D21*
X124230000Y-57785000D03*
D22*
X125730000Y-57785000D03*
D15*
X96520000Y-46990000D03*
D16*
X96520000Y-44450000D03*
X96520000Y-41910000D03*
D13*
X114300000Y-68580000D03*
D14*
X115570000Y-68580000D03*
X116840000Y-68580000D03*
D12*
X153670000Y-69850000D03*
D11*
X143510000Y-69850000D03*
D17*
X173990000Y-35560000D03*
D12*
X110490000Y-58420000D03*
D11*
X120650000Y-58420000D03*
D12*
X140970000Y-63500000D03*
D11*
X140970000Y-73660000D03*
D12*
X128270000Y-73660000D03*
X123270000Y-73660000D03*
X120650000Y-62230000D03*
D11*
X130810000Y-62230000D03*
D23*
X137160000Y-77470000D03*
D13*
X157480000Y-49530000D03*
D14*
X158750000Y-49530000D03*
X160020000Y-49530000D03*
D20*
X167380000Y-31440000D03*
X155080000Y-31440000D03*
D19*
X157480000Y-35190000D03*
X164980000Y-35190000D03*
D18*
X157480000Y-27940000D03*
D12*
X153670000Y-44450000D03*
D11*
X143510000Y-44450000D03*
M02*
