M48
; DRILL file {KiCad 8.0.9} date 2025-03-02T14:07:56+0100
; FORMAT={-:-/ absolute / metric / decimal}
; #@! TF.CreationDate,2025-03-02T14:07:56+01:00
; #@! TF.GenerationSoftware,Kicad,Pcbnew,8.0.9
; #@! TF.FileFunction,Plated,1,2,PTH
FMAT,2
METRIC
; #@! TA.AperFunction,Plated,PTH,ViaDrill
T1C0.300
; #@! TA.AperFunction,Plated,PTH,ComponentDrill
T2C0.600
; #@! TA.AperFunction,Plated,PTH,ComponentDrill
T3C0.750
; #@! TA.AperFunction,Plated,PTH,ComponentDrill
T4C0.800
; #@! TA.AperFunction,Plated,PTH,ComponentDrill
T5C1.000
; #@! TA.AperFunction,Plated,PTH,ComponentDrill
T6C1.300
; #@! TA.AperFunction,Plated,PTH,ComponentDrill
T7C1.500
; #@! TA.AperFunction,Plated,PTH,ComponentDrill
T8C3.200
%
G90
G05
T1
X151.765Y-31.75
T2
X124.23Y-57.785
X125.73Y-57.785
X148.36Y-57.785
X149.86Y-57.785
T3
X114.3Y-48.26
X114.3Y-53.34
X114.3Y-63.5
X114.3Y-68.58
X115.57Y-48.26
X115.57Y-53.34
X115.57Y-63.5
X115.57Y-68.58
X116.84Y-48.26
X116.84Y-53.34
X116.84Y-63.5
X116.84Y-68.58
X157.48Y-49.53
X157.48Y-54.61
X157.48Y-62.23
X157.48Y-67.31
X158.75Y-49.53
X158.75Y-54.61
X158.75Y-62.23
X158.75Y-67.31
X160.02Y-49.53
X160.02Y-54.61
X160.02Y-62.23
X160.02Y-67.31
T4
X97.95Y-58.42
X100.33Y-44.45
X100.33Y-48.26
X100.33Y-53.34
X100.33Y-62.23
X100.33Y-66.04
X100.33Y-77.47
X101.6Y-69.85
X102.87Y-73.66
X107.87Y-73.66
X107.95Y-58.42
X109.22Y-69.85
X110.49Y-44.45
X110.49Y-48.26
X110.49Y-53.34
X110.49Y-58.42
X110.49Y-62.23
X110.49Y-66.04
X110.49Y-77.47
X111.76Y-73.66
X113.03Y-44.45
X113.07Y-77.47
X118.03Y-44.45
X118.07Y-77.47
X119.38Y-73.66
X120.65Y-44.45
X120.65Y-48.26
X120.65Y-53.34
X120.65Y-58.42
X120.65Y-62.23
X120.65Y-66.04
X120.65Y-69.85
X120.65Y-77.47
X123.27Y-73.66
X128.27Y-73.66
X130.81Y-44.45
X130.81Y-48.26
X130.81Y-53.34
X130.81Y-62.23
X130.81Y-66.04
X130.81Y-69.85
X130.81Y-77.47
X133.35Y-63.5
X133.35Y-73.66
X134.62Y-45.72
X134.66Y-50.8
X134.66Y-54.61
X137.12Y-45.72
X137.16Y-59.69
X139.66Y-50.8
X139.66Y-54.61
X139.66Y-59.69
X140.97Y-63.5
X140.97Y-73.66
X143.51Y-44.45
X143.51Y-48.26
X143.51Y-53.34
X143.51Y-62.23
X143.51Y-66.04
X143.51Y-69.85
X143.51Y-77.47
X146.13Y-73.66
X151.13Y-73.66
X153.67Y-44.45
X153.67Y-48.26
X153.67Y-53.34
X153.67Y-58.42
X153.67Y-62.23
X153.67Y-66.04
X153.67Y-69.85
X153.67Y-77.47
X154.94Y-73.66
X156.21Y-44.45
X156.25Y-77.47
X161.21Y-44.45
X161.25Y-77.47
X162.56Y-73.66
X163.83Y-44.45
X163.83Y-49.53
X163.83Y-54.61
X163.83Y-58.42
X163.83Y-62.23
X163.83Y-66.04
X163.83Y-77.47
X165.1Y-69.85
X166.37Y-73.66
X166.45Y-58.42
X171.37Y-73.66
X172.72Y-69.85
X173.99Y-44.45
X173.99Y-49.53
X173.99Y-54.61
X173.99Y-62.23
X173.99Y-66.04
X173.99Y-77.47
X176.45Y-58.42
T5
X96.52Y-41.91
X96.52Y-44.45
X96.52Y-46.99
X96.52Y-52.07
X96.52Y-54.61
X110.49Y-40.64
X113.03Y-40.64
X116.84Y-40.64
X119.38Y-40.64
X154.94Y-40.64
X157.48Y-40.64
X161.29Y-40.64
X163.83Y-40.64
T6
X109.22Y-35.19
X116.72Y-35.19
X129.74Y-35.1
X132.24Y-37.6
X137.24Y-35.1
X142.24Y-37.6
X144.74Y-35.1
X157.48Y-35.19
X164.98Y-35.19
T7
X109.22Y-27.94
X132.24Y-25.4
X142.24Y-25.4
X157.48Y-27.94
T8
X99.06Y-35.56
X173.99Y-35.56
M30
